<?xml version="1.0" encoding="UTF-8"?>
<svg version="1.1" xmlns="http://www.w3.org/2000/svg" width="512" height="512">
<path d="M0 0 C1.01545898 0.19867676 2.03091797 0.39735352 3.07714844 0.60205078 C52.9758035 10.58327711 96.53871388 34.88580573 133 70 C133.7940625 70.7528125 134.588125 71.505625 135.40625 72.28125 C140.75597303 77.46114055 145.38660506 83.16405541 150 89 C151.19109375 90.48306641 151.19109375 90.48306641 152.40625 91.99609375 C175.32205725 121.03970389 191.22147176 154.85685587 199.6875 190.8125 C199.97306763 191.99936401 199.97306763 191.99936401 200.2644043 193.21020508 C204.22851721 210.89052902 205.555362 228.61292655 205.4375 246.6875 C205.43293793 248.18546112 205.43293793 248.18546112 205.42828369 249.71368408 C205.35621635 265.78341917 204.43972751 281.25213186 201 297 C200.78037598 298.02625488 200.56075195 299.05250977 200.33447266 300.10986328 C191.83138831 338.85817193 174.61772522 375.56726438 149 406 C148.57138672 406.51739746 148.14277344 407.03479492 147.70117188 407.56787109 C137.18164284 420.2564129 126.03816903 431.86528878 113 442 C111.52660156 443.18142578 111.52660156 443.18142578 110.0234375 444.38671875 C70.29759115 476.0035908 18.37047678 496.93437939 -32.79296875 497.203125 C-33.69337387 497.21018463 -34.59377899 497.21724426 -35.52146912 497.22451782 C-72.98691069 497.45161655 -72.98691069 497.45161655 -90 494 C-91.01545898 493.80132324 -92.03091797 493.60264648 -93.07714844 493.39794922 C-142.9758035 483.41672289 -186.53871388 459.11419427 -223 424 C-223.7940625 423.2471875 -224.588125 422.494375 -225.40625 421.71875 C-230.75597303 416.53885945 -235.38660506 410.83594459 -240 405 C-240.7940625 404.01128906 -241.588125 403.02257812 -242.40625 402.00390625 C-266.9776499 370.86198961 -283.32468106 334.48759715 -291.25 295.6875 C-291.47671387 294.57942993 -291.47671387 294.57942993 -291.70800781 293.44897461 C-292.18439803 290.97158418 -292.60252786 288.49133778 -293 286 C-293.17805176 284.88423584 -293.35610352 283.76847168 -293.53955078 282.61889648 C-295.19998488 270.98027732 -295.3987437 259.43103747 -295.375 247.6875 C-295.37445618 246.6738739 -295.37391235 245.6602478 -295.37335205 244.61590576 C-295.33347417 228.41878779 -294.46747801 212.87491635 -291 197 C-290.78037598 195.97374512 -290.56075195 194.94749023 -290.33447266 193.89013672 C-279.82149525 145.98280374 -255.85138923 104.15003587 -222 69 C-221.2471875 68.2059375 -220.494375 67.411875 -219.71875 66.59375 C-214.53885945 61.24402697 -208.83594459 56.61339494 -203 52 C-202.01128906 51.2059375 -201.02257812 50.411875 -200.00390625 49.59375 C-167.66655102 24.07913264 -130.33332447 7.86607287 -90 0 C-89.17274414 -0.16661133 -88.34548828 -0.33322266 -87.49316406 -0.50488281 C-59.91781494 -5.80488028 -27.50199116 -5.57960557 0 0 Z " fill="#5C6BC0" transform="translate(301,9)"/>
<path d="M0 0 C2.625 2.5 2.625 2.5 4 5 C3.2678125 5.25652344 2.535625 5.51304687 1.78125 5.77734375 C-1.34270274 6.88188418 -4.46102305 8.00057638 -7.57714844 9.12695312 C-9.28219399 9.74134681 -10.98871469 10.35165441 -12.69628906 10.95898438 C-35.04515997 18.93258766 -57.84002747 28.31133872 -76 44 C-75.27941406 43.59910156 -74.55882813 43.19820312 -73.81640625 42.78515625 C-57.90085017 34.35927362 -40.42941818 28.44114983 -23 24 C-22.05253906 23.75540039 -22.05253906 23.75540039 -21.0859375 23.50585938 C-17.15705496 22.49329988 -13.22517896 21.49306318 -9.27905273 20.54956055 C-7.59042541 20.14237253 -5.9055554 19.71953354 -4.22290039 19.28833008 C4.93520583 17.02684875 14.07654946 15.81909337 23.4375 14.8125 C24.23057556 14.72595154 25.02365112 14.63940308 25.84075928 14.55023193 C38.61433511 13.17382576 51.14974888 12.37679955 64 13 C64.9369873 13.03335449 65.87397461 13.06670898 66.83935547 13.10107422 C108.87429058 14.71168758 148.87141168 26.76875392 187 44 C162.29766773 26.6065975 135.93531226 14.6107923 107 6 C107 3 107 3 108.24829102 1.33007812 C112.42105892 -1.83831763 119.16879948 -0.04745903 124.06640625 0.59375 C148.70760125 4.45921134 171.37127113 12.88123617 192.75 25.625 C193.5013623 26.0681958 194.25272461 26.5113916 195.02685547 26.96801758 C202.25932861 31.42225297 206.14094118 36.61036423 209.8125 44.3125 C210.1530542 45.01415283 210.4936084 45.71580566 210.84448242 46.4387207 C211.5549689 47.90690695 212.26173301 49.3769001 212.96484375 50.84863281 C213.9253026 52.84475626 214.91108026 54.82570369 215.90625 56.8046875 C233.1870239 91.67323154 245.16026264 131.16810156 249.72802734 169.76611328 C249.98403494 171.86886868 250.27406817 173.96289203 250.58203125 176.05859375 C251.77995664 184.34065348 252.55655903 192.58572526 252.89892578 200.94433594 C253.00365598 203.07435589 253.17105979 205.19449522 253.33984375 207.3203125 C253.97909966 217.45477288 253.97909966 217.45477288 251.6015625 221.20703125 C249.51289081 223.02715944 247.31013977 224.47214921 245 226 C243.27292562 227.60506756 241.56581422 229.23177907 239.875 230.875 C229.29983471 240.47556271 216.90135801 247.0536252 204 253 C202.99066406 253.47308594 201.98132813 253.94617188 200.94140625 254.43359375 C186.99457016 260.37905774 171.05839869 263.01446205 156 264 C155.18909912 264.09877441 154.37819824 264.19754883 153.54272461 264.29931641 C150.24208072 264.57370435 147.98775837 264.68940953 145.21044922 262.75097656 C143.45771233 260.96767169 141.94862345 259.11679512 140.4375 257.125 C139.88811768 256.44477783 139.33873535 255.76455566 138.77270508 255.0637207 C137.67351568 253.69735713 136.5855854 252.32185055 135.50976562 250.93701172 C134.16603114 249.21301602 132.79254958 247.52437122 131.390625 245.84765625 C126 239.3387633 126 239.3387633 126 237 C126.58265625 236.8047876 127.1653125 236.6095752 127.765625 236.40844727 C149.31907603 229.10323376 168.26307545 219.83484952 184 203 C181.40796386 203.86401205 179.50881163 204.78633186 177.17578125 206.15234375 C165.01713971 213.13687857 152.63046054 218.86044412 139.58203125 223.98535156 C137.4737803 224.81382083 135.37657002 225.66311533 133.28125 226.5234375 C125.80071853 229.43047572 118.1084569 231.32258923 110.3125 233.1875 C109.28592285 233.43790039 108.2593457 233.68830078 107.20166016 233.94628906 C91.02153377 237.65219745 74.66612596 238.38577144 58.125 238.3125 C57.2404715 238.31034485 56.35594299 238.3081897 55.4446106 238.30596924 C15.97265885 238.1528348 -21.08796567 231.0969665 -56 212 C-56.79825195 211.56413574 -57.59650391 211.12827148 -58.41894531 210.67919922 C-63.63277504 207.82144719 -68.82306972 204.92400692 -74 202 C-59.31766201 219.75728852 -38.66275613 230.10257845 -17 237 C-17.7606335 242.05528723 -21.20343073 245.16413376 -24.47265625 248.88671875 C-26.33717128 251.05954491 -27.47042843 252.86916317 -28.87109375 255.45703125 C-31.10706557 259.20108543 -32.99231852 262.17000846 -37 264 C-51.99989545 266.18314527 -68.78513329 261.71085555 -83 257 C-83.68030273 256.78359863 -84.36060547 256.56719727 -85.06152344 256.34423828 C-101.36864067 251.0855273 -116.41273036 242.65753369 -129.34765625 231.42089844 C-130.46906062 230.45657021 -131.6079908 229.51232667 -132.76171875 228.58691406 C-142.24278188 220.96334398 -142.24278188 220.96334398 -143.8125 214.8203125 C-143.8705909 211.61805163 -143.66385826 208.55899748 -143.26611328 205.3828125 C-142.96453962 202.68248323 -142.81847846 199.99497019 -142.68359375 197.28125 C-139.97507964 147.43372524 -125.52445278 97.89565162 -104 53 C-103.5963623 52.1440625 -103.19272461 51.288125 -102.77685547 50.40625 C-93.97927959 31.92412106 -93.97927959 31.92412106 -85 27 C-83.66437201 26.21131391 -82.3298402 25.42077004 -80.99609375 24.62890625 C-61.97273812 13.53697703 -42.12112349 5.67253623 -20.4375 1.625 C-19.54595215 1.45718018 -18.6544043 1.28936035 -17.73583984 1.11645508 C-5.48151538 -1.00373757 -5.48151538 -1.00373757 0 0 Z " fill="#FEFEFE" transform="translate(201,124)"/>
<path d="M0 0 C3.25385688 1.42796694 5.41304774 3.16558514 7.9155426 5.67503357 C9.0658194 6.82118637 9.0658194 6.82118637 10.23933411 7.99049377 C11.07115707 8.82950729 11.90298004 9.66852081 12.76000977 10.53295898 C13.64334991 11.41600708 14.52669006 12.29905518 15.4367981 13.2088623 C17.85562258 15.62884106 20.26992364 18.0531724 22.68232846 20.47954059 C25.20910729 23.01883607 27.74156446 25.55245557 30.27342224 28.08668518 C35.0690564 32.88853555 39.8595714 37.69545952 44.64826673 42.50422865 C50.08843602 47.96671174 55.53424625 53.42355596 60.98055947 58.87991226 C71.73314978 69.65256 82.47928495 80.43161947 93.22084904 91.21526241 C94.34715347 92.3451035 95.50752462 93.44276533 96.70968533 94.49153233 C99.15190681 97.34665925 98.47926272 101.41138881 98.4375 105 C98.42614014 106.38094849 98.42614014 106.38094849 98.41455078 107.78979492 C97.22493831 160.08498551 75.51698584 213.18328872 42 253 C41.57138672 253.51739746 41.14277344 254.03479492 40.70117188 254.56787109 C30.18164284 267.2564129 19.03816903 278.86528878 6 289 C4.52660156 290.18142578 4.52660156 290.18142578 3.0234375 291.38671875 C-36.73066456 323.02607885 -88.8475261 344.10197229 -140.07421875 344.16796875 C-141.00112015 344.17129715 -141.92802155 344.17462555 -142.88301086 344.17805481 C-144.8317516 344.18308222 -146.78050083 344.18546444 -148.72924805 344.18530273 C-151.66274702 344.18748161 -154.59586452 344.20566178 -157.52929688 344.22460938 C-159.44010291 344.22754595 -161.35091069 344.22952898 -163.26171875 344.23046875 C-164.11537521 344.23765427 -164.96903168 344.24483978 -165.84855652 344.25224304 C-167.54524245 344.24608369 -169.24217596 344.20631572 -170.93720722 344.13114834 C-173.05539042 344.04044804 -175.17646746 344.00620176 -177.29656219 344.01737785 C-189.79881208 343.38810947 -195.69145309 337.08562187 -204.07348633 328.38647461 C-205.50805318 326.94659567 -206.94551021 325.5095914 -208.38560486 324.07524109 C-212.26552932 320.19477891 -216.10425323 316.27578518 -219.93669343 312.3484962 C-223.95848531 308.24138614 -228.0178472 304.17175447 -232.07341003 300.09803772 C-239.73947711 292.38649935 -247.37223392 284.64286686 -254.99306077 276.8866449 C-264.52037168 267.19316163 -274.08875118 257.540525 -283.65820312 247.88867188 C-287.00275411 244.51486643 -290.3469959 241.14075501 -293.69084167 237.76625061 C-294.5000759 236.94960247 -295.30931012 236.13295433 -296.14306659 235.29155928 C-301.73712651 229.64391468 -307.32005154 223.98541443 -312.89814758 218.32200623 C-314.38723856 216.81131147 -315.87637317 215.30065971 -317.36555481 213.79005432 C-320.1305923 210.98523713 -322.89240168 208.17729393 -325.6524353 205.36755371 C-326.87405667 204.12807674 -328.09580464 202.88872453 -329.31770325 201.64952087 C-329.86972422 201.0857195 -330.42174519 200.52191813 -330.99049407 199.94103187 C-333.7237631 197.11482544 -333.7237631 197.11482544 -337 195 C-336.505 194.01 -336.505 194.01 -336 193 C-335.175 193.61746094 -334.35 194.23492187 -333.5 194.87109375 C-318.94971536 205.61023351 -304.24103581 213.45288413 -287 219 C-286.02740234 219.32291016 -286.02740234 219.32291016 -285.03515625 219.65234375 C-280.41841277 221.14570898 -275.77114118 222.16458253 -271 223 C-269.45022461 223.28738037 -269.45022461 223.28738037 -267.86914062 223.58056641 C-254.59261729 226.33093466 -254.59261729 226.33093466 -241.7265625 223.84814453 C-237.95930427 220.78333928 -235.45717371 217.00792544 -233.06982422 212.81933594 C-231.57031112 210.26927395 -229.71032798 208.07486127 -227.8125 205.8125 C-225.92069168 203.40516241 -224.98266884 201.94800652 -224 199 C-224.55034912 198.89623047 -225.10069824 198.79246094 -225.66772461 198.68554688 C-247.86770556 194.17429557 -266.28990108 180.66495496 -282 165 C-281.67 164.34 -281.34 163.68 -281 163 C-279.329375 163.94359375 -279.329375 163.94359375 -277.625 164.90625 C-272.7681055 167.63738106 -267.89055153 170.32964435 -263 173 C-262.32807617 173.36754395 -261.65615234 173.73508789 -260.96386719 174.11376953 C-225.80397605 193.11985733 -188.39472094 199.2162103 -148.875 199.3125 C-148.02471222 199.31626648 -147.17442444 199.32003296 -146.29837036 199.32391357 C-129.85020081 199.3609227 -113.54994019 198.29844167 -97.5 194.5 C-96.42250488 194.24718262 -95.34500977 193.99436523 -94.23486328 193.73388672 C-76.45519748 189.34349732 -59.04044642 182.7809551 -42.93164062 174.04589844 C-40.73966684 172.85904104 -38.53488075 171.69819378 -36.328125 170.5390625 C-33.33126277 168.9630467 -30.33865033 167.3796201 -27.3515625 165.78515625 C-25.57665445 164.83977982 -23.79867399 163.899337 -22 163 C-29.4432653 179.56491396 -52.70809677 189.47404902 -68.67041016 195.68652344 C-77.39563325 199 -77.39563325 199 -81 199 C-78.37442555 202.37431241 -75.73837904 205.73889412 -73.078125 209.0859375 C-71.11834438 211.55584829 -69.21628465 214.05361113 -67.359375 216.6015625 C-63.43581179 222.16679465 -63.43581179 222.16679465 -57.90234375 225.8125 C-55.4637027 225.88543132 -53.38918181 225.5010746 -51 225 C-49.94554687 224.88398438 -48.89109375 224.76796875 -47.8046875 224.6484375 C-43.84907479 224.21272206 -39.92813083 223.62983429 -36 223 C-35.23719727 222.88172852 -34.47439453 222.76345703 -33.68847656 222.64160156 C-4.38259878 217.95409242 21.77484277 204.4483048 42.109375 182.80078125 C44 181 44 181 46 181 C42.75653773 120.39908116 30.17179726 63.98141874 3.37255859 9.07104492 C1.92165849 6.08570333 0.6094582 3.2778968 0 0 Z " fill="#505CA0" transform="translate(408,162)"/>
<path d="M0 0 C7.90170884 4.55867818 14.65020061 11.54908477 18.234375 20.01171875 C20.46707043 28.72606571 20.73468274 40.1222102 16.2578125 48.12109375 C15.84273438 48.74113281 15.42765625 49.36117187 15 50 C14.56429687 50.69222656 14.12859375 51.38445312 13.6796875 52.09765625 C8.94994961 59.01134415 2.73508603 64.1717224 -5.3828125 66.53125 C-14.99192576 68.25228521 -24.67646494 67.8572395 -33.11328125 62.7109375 C-41.6535493 56.69575812 -46.68604615 49.52035002 -49.75 39.5625 C-50.8311728 28.48047878 -49.05771741 18.98254943 -42 10 C-31.17740065 -2.36868497 -15.3020997 -7.26306558 0 0 Z " fill="#49538B" transform="translate(332,243)"/>
<path d="M0 0 C6.34147773 4.61775703 11.54325895 9.91368084 15 17 C15.3609375 17.71542969 15.721875 18.43085938 16.09375 19.16796875 C18.90780772 27.96189912 18.37462266 39.46629393 14.4375 47.75 C9.0198057 56.80474782 2.23474145 62.24920842 -7.82421875 65.609375 C-16.62528541 67.18945878 -26.02863708 67.22031775 -33.82421875 62.54296875 C-42.68718095 56.25774421 -48.04893182 49.6110147 -51 39 C-52.15628753 27.94855955 -51.30884702 19.48596422 -45 10 C-44.61714844 9.38769531 -44.23429688 8.77539062 -43.83984375 8.14453125 C-34.12919912 -5.39468294 -13.84873267 -7.65270709 0 0 Z " fill="#424B7B" transform="translate(212,244)"/>
<path d="M0 0 C2.359375 2.06640625 2.359375 2.06640625 4.75 4.5625 C5.54921875 5.38878906 6.3484375 6.21507812 7.171875 7.06640625 C7.77515625 7.70449219 8.3784375 8.34257812 9 9 C5.84015265 11.1065649 3.9653892 11.54879684 0.27734375 12.2265625 C-1.470625 12.56083252 -1.470625 12.56083252 -3.25390625 12.90185547 C-4.51074219 13.14049316 -5.76757812 13.37913086 -7.0625 13.625 C-31.94927978 18.52470148 -57.59363257 25.77045571 -79.91796875 38.06640625 C-80.60503906 38.37449219 -81.29210937 38.68257812 -82 39 C-82.66 38.67 -83.32 38.34 -84 38 C-63.17403705 22.26333989 -40.11630756 11.35699854 -15.515625 2.87255859 C-13.83240437 2.28872411 -12.15518834 1.68729506 -10.484375 1.06884766 C-9.69546875 0.78444824 -8.9065625 0.50004883 -8.09375 0.20703125 C-7.39958984 -0.04973389 -6.70542969 -0.30649902 -5.99023438 -0.57104492 C-3.61011366 -1.08403218 -2.27087877 -0.84586424 0 0 Z " fill="#444B76" transform="translate(207,130)"/>
<path d="M0 0 C27.81612047 4.10401777 57.83953818 20.11996072 80 37 C80.33 37.66 80.66 38.32 81 39 C77.58610117 37.63927146 74.1815728 36.25754942 70.78125 34.86328125 C60.58385212 30.70905851 50.38038284 26.62611593 39.9375 23.125 C38.65697754 22.69501709 38.65697754 22.69501709 37.35058594 22.25634766 C32.7020016 20.74245809 28.10191779 19.56208839 23.31005859 18.60742188 C14.33992523 16.77895193 10.24625412 13.34937802 5 6 C3.98922632 4.78323926 2.97022331 3.57318726 1.9375 2.375 C1.298125 1.59125 0.65875 0.8075 0 0 Z " fill="#485080" transform="translate(308,130)"/>
<path d="M0 0 C0.66 0.33 1.32 0.66 2 1 C1 4 1 4 -1.21484375 5.421875 C-2.56255859 6.07929688 -2.56255859 6.07929688 -3.9375 6.75 C-4.83339844 7.19859375 -5.72929687 7.6471875 -6.65234375 8.109375 C-7.42707031 8.40328125 -8.20179687 8.6971875 -9 9 C-9.66 8.67 -10.32 8.34 -11 8 C-7.37 5.36 -3.74 2.72 0 0 Z " fill="#5E6488" transform="translate(134,160)"/>
<path d="M0 0 C3.15133488 1.83827868 6.11964908 3.75972706 9 6 C8.67 6.99 8.34 7.98 8 9 C6.66079162 7.88200014 5.32877444 6.75538103 4 5.625 C2.88625 4.68527344 2.88625 4.68527344 1.75 3.7265625 C1.1725 3.15679687 0.595 2.58703125 0 2 C0 1.34 0 0.68 0 0 Z " fill="#525B8B" transform="translate(71,355)"/>
<path d="M0 0 C6.875 3.75 6.875 3.75 8 6 C3 4 3 4 -2 2 C-1.34 1.34 -0.68 0.68 0 0 Z " fill="#747BA3" transform="translate(381,163)"/>
</svg>
