<?xml version="1.0" encoding="UTF-8"?>
<svg version="1.1" xmlns="http://www.w3.org/2000/svg" width="512" height="512">
<path d="M0 0 C1.01790619 0.00215515 2.03581238 0.0043103 3.08456421 0.00653076 C17.69363523 0.05620146 32.02575853 0.30709809 46.375 3.3125 C47.34985352 3.51117676 48.32470703 3.70985352 49.32910156 3.91455078 C97.7109774 14.03517194 141.69928269 35.9516877 177.375 70.3125 C178.3640332 71.26068604 178.3640332 71.26068604 179.37304688 72.22802734 C188.86130305 81.37247479 197.6012044 90.66984009 205.375 101.3125 C206.23306152 102.46355017 207.09113451 103.61459177 207.94921875 104.765625 C213.98736829 112.95680614 219.34595521 121.47054105 224.375 130.3125 C224.73948242 130.94430176 225.10396484 131.57610352 225.47949219 132.22705078 C247.08534998 169.97532572 256.85198095 212.74189997 256.6875 255.9375 C256.68534485 256.95540619 256.6831897 257.97331238 256.68096924 259.02206421 C256.63129854 273.63113523 256.38040191 287.96325853 253.375 302.3125 C253.07698486 303.77478027 253.07698486 303.77478027 252.77294922 305.26660156 C242.65232806 353.6484774 220.7358123 397.63678269 186.375 433.3125 C185.74287598 433.97185547 185.11075195 434.63121094 184.45947266 435.31054688 C175.31502521 444.79880305 166.01765991 453.5387044 155.375 461.3125 C154.22394983 462.17056152 153.07290823 463.02863451 151.921875 463.88671875 C143.73224019 469.92427396 135.22961724 475.30707302 126.375 480.3125 C125.66778809 480.7146875 124.96057617 481.116875 124.23193359 481.53125 C101.09654164 494.5566741 75.92537591 503.30551461 49.9375 508.625 C49.21860596 508.77235596 48.49971191 508.91971191 47.7590332 509.0715332 C33.08339502 511.86090125 18.55831162 512.66142619 3.64770508 512.62817383 C0.70811513 512.6250221 -2.2304558 512.64854926 -5.16992188 512.67382812 C-18.54306192 512.71848737 -31.43916711 511.51301542 -44.625 509.3125 C-46.33055054 509.03031616 -46.33055054 509.03031616 -48.07055664 508.74243164 C-91.33802759 500.97044532 -132.38793216 480.98345309 -165.625 452.3125 C-166.37007813 451.67828125 -167.11515625 451.0440625 -167.8828125 450.390625 C-181.38779833 438.57948485 -194.05918743 425.82889772 -204.625 411.3125 C-205.48149066 410.16255169 -206.33826433 409.01281411 -207.1953125 407.86328125 C-213.23534209 399.67315742 -218.61867614 391.16870382 -223.625 382.3125 C-224.0271875 381.60528809 -224.429375 380.89807617 -224.84375 380.16943359 C-237.8691741 357.03404164 -246.61801461 331.86287591 -251.9375 305.875 C-252.08485596 305.15610596 -252.23221191 304.43721191 -252.3840332 303.6965332 C-255.35789088 288.05024391 -255.99800362 272.57681954 -255.9375 256.6875 C-255.93534485 255.66959381 -255.9331897 254.65168762 -255.93096924 253.60293579 C-255.88129854 238.99386477 -255.63040191 224.66174147 -252.625 210.3125 C-252.42632324 209.33764648 -252.22764648 208.36279297 -252.02294922 207.35839844 C-241.90232806 158.9765226 -219.9858123 114.98821731 -185.625 79.3125 C-184.99287598 78.65314453 -184.36075195 77.99378906 -183.70947266 77.31445312 C-174.56502521 67.82619695 -165.26765991 59.0862956 -154.625 51.3125 C-153.47394983 50.45443848 -152.32290823 49.59636549 -151.171875 48.73828125 C-142.98224019 42.70072604 -134.47961724 37.31792698 -125.625 32.3125 C-124.91778809 31.9103125 -124.21057617 31.508125 -123.48193359 31.09375 C-100.34654164 18.0683259 -75.17537591 9.31948539 -49.1875 4 C-48.46860596 3.85264404 -47.74971191 3.70528809 -47.0090332 3.5534668 C-31.36274391 0.57960912 -15.88931954 -0.06050362 0 0 Z " fill="#000000" transform="translate(255.625,-0.3125)"/>
<path d="M0 0 C1.3245797 -0.0146228 1.3245797 -0.0146228 2.67591858 -0.02954102 C26.88531356 -0.24141278 50.17810495 0.17406003 73.21337891 8.53320312 C75.32012393 9.28863889 77.44094418 9.99047075 79.56640625 10.69140625 C97.62673087 16.81002763 115.02403256 25.62040167 130.1796875 37.23828125 C131.05367188 37.9034375 131.92765625 38.56859375 132.828125 39.25390625 C138.86236648 43.96989805 144.59385853 49.00156659 150.1796875 54.23828125 C150.67339844 54.69799316 151.16710937 55.15770508 151.67578125 55.63134766 C177.19114143 79.57983566 194.47960464 110.80081526 204.1796875 144.23828125 C204.39351074 144.97498047 204.60733398 145.71167969 204.82763672 146.47070312 C218.11946643 193.73536454 210.16562834 247.28926382 187.1796875 290.23828125 C173.07348885 315.22939493 154.18817533 337.14016541 131.1796875 354.23828125 C129.93638672 355.17414063 129.93638672 355.17414063 128.66796875 356.12890625 C115.18357825 365.92741072 100.6876579 373.17309032 85.26757812 379.39233398 C83.62874543 380.05633718 82.00300625 380.75266844 80.3828125 381.4609375 C77.89821668 382.33759453 75.81118686 382.60588205 73.1796875 382.67578125 C72.3546875 382.71574219 71.5296875 382.75570313 70.6796875 382.796875 C66.98269978 381.97082931 65.56673889 380.12319952 63.1796875 377.23828125 C62.56063843 374.13621521 62.56063843 374.13621521 62.56787109 370.61889648 C62.56220627 369.97419907 62.55654144 369.32950165 62.55070496 368.66526794 C62.53724516 366.5418713 62.55812937 364.42019631 62.578125 362.296875 C62.57261817 360.80818015 62.56448756 359.31949293 62.55386353 357.83082581 C62.53098949 353.91110969 62.5351836 349.99195116 62.54766846 346.07220459 C62.56596681 339.82483005 62.55567445 333.5777897 62.52180862 327.33049202 C62.51578214 325.16581901 62.52887272 323.00188027 62.54379272 320.83726501 C62.55254092 310.05646536 61.45397863 299.94152959 55.6171875 290.67578125 C55.01777344 289.70511719 54.41835938 288.73445313 53.80078125 287.734375 C52.6058317 285.89444063 51.39665257 284.06372885 50.1796875 282.23828125 C50.78216309 282.14853027 51.38463867 282.0587793 52.00537109 281.96630859 C78.74919934 277.89052684 103.59975468 271.20482835 121.4296875 249.55078125 C137.55695295 226.21873153 141.90135823 195.41824588 137.1796875 167.73828125 C134.67451684 156.38229538 129.19726477 145.7708294 121.52734375 137.03515625 C120.04050678 135.05270695 119.49978905 133.68582696 119.1796875 131.23828125 C119.80595878 129.22526642 120.47804108 127.22627943 121.1796875 125.23828125 C123.530623 111.54950077 123.54854978 94.97600582 117.1796875 82.23828125 C99.06609587 80.99950979 81.45052728 88.85421293 66.9921875 99.609375 C64.1796875 101.23828125 64.1796875 101.23828125 61.453125 101.1171875 C60.37289062 100.82714844 59.29265625 100.53710938 58.1796875 100.23828125 C42.97484587 96.92440551 28.19247662 95.82548716 12.6796875 95.80078125 C11.83931946 95.7949704 10.99895142 95.78915955 10.13311768 95.78317261 C-3.6674481 95.71734981 -16.65749068 97.1105625 -29.9453125 100.98828125 C-37.49876591 102.25577753 -42.91810623 97.46503528 -48.875 93.47216797 C-61.32838559 85.57314553 -74.10136391 81.61537904 -88.8203125 82.23828125 C-94.60582964 98.14172604 -96.30918978 115.035701 -90.7578125 131.36328125 C-90.84693797 135.46305308 -92.9424555 136.76524462 -95.70703125 139.640625 C-110.76350006 158.14811438 -111.3159306 182.2569679 -109.61816406 204.93896484 C-107.38038005 226.00369022 -98.63196632 246.02868218 -82.59765625 260.203125 C-65.77291445 273.76380755 -45.09193316 279.96535547 -23.8203125 282.23828125 C-23.8203125 285.81897208 -24.71504286 286.95347161 -26.6328125 289.92578125 C-29.87227731 295.17463108 -32.76142255 300.17600376 -32.8828125 306.48828125 C-33.8203125 309.23828125 -33.8203125 309.23828125 -35.890625 310.4609375 C-46.88017655 315.03718359 -59.39834834 315.96126324 -70.8203125 312.23828125 C-80.5797274 307.93088517 -87.24495392 300.38784509 -92.9453125 291.55078125 C-98.09319883 283.58348034 -104.68952737 277.34876849 -113.8203125 274.23828125 C-118.81645933 273.59309583 -123.80775277 273.8729935 -128.8203125 274.23828125 C-128.573593 277.94957252 -128.40636473 279.70578739 -125.59765625 282.2578125 C-124.19193359 283.14533203 -124.19193359 283.14533203 -122.7578125 284.05078125 C-110.11083204 292.70570061 -103.69994469 304.94280673 -97.27734375 318.546875 C-94.58229451 323.5251295 -91.52599053 326.77414689 -86.7578125 329.80078125 C-85.90058594 330.35894531 -85.04335937 330.91710937 -84.16015625 331.4921875 C-74.71656937 336.42936099 -66.76018951 337.81661336 -56.1328125 337.55078125 C-54.96169922 337.54111328 -53.79058594 337.53144531 -52.58398438 337.52148438 C-46.5725489 337.44350185 -40.77402322 337.03917646 -34.8203125 336.23828125 C-34.69653646 341.98567883 -34.60589002 347.73229752 -34.5456543 353.48071289 C-34.52053969 355.43527748 -34.48644119 357.38974842 -34.44311523 359.34399414 C-34.38232816 362.15664793 -34.35407267 364.96805827 -34.33203125 367.78125 C-34.30622482 368.65226852 -34.2804184 369.52328705 -34.25382996 370.42070007 C-34.2518227 374.78156719 -34.41093631 376.67807755 -37.05541992 380.296875 C-41.37100958 383.32712391 -44.73771168 382.96719599 -49.8203125 382.23828125 C-53.08496155 381.41840148 -56.10407346 380.24938589 -59.1953125 378.92578125 C-60.05036377 378.56967773 -60.90541504 378.21357422 -61.78637695 377.84667969 C-84.20821935 368.24581034 -103.9433526 354.73607183 -121.8203125 338.23828125 C-122.32788086 337.77067383 -122.83544922 337.30306641 -123.35839844 336.82128906 C-131.06667027 329.63069835 -137.53850208 321.6621452 -143.8203125 313.23828125 C-144.44550781 312.408125 -145.07070312 311.57796875 -145.71484375 310.72265625 C-163.22157581 286.61502522 -174.92566286 258.59266545 -179.8203125 229.23828125 C-180.08847778 227.64246216 -180.08847778 227.64246216 -180.36206055 226.0144043 C-181.83058368 216.31561034 -182.16106588 206.8005728 -182.13598633 197.00561523 C-182.13282859 194.43885647 -182.15638395 191.87325802 -182.18164062 189.30664062 C-182.24007477 174.26250362 -180.20218826 159.85856554 -176.1328125 145.36328125 C-175.74935669 143.98958374 -175.74935669 143.98958374 -175.3581543 142.58813477 C-160.96424824 92.71357204 -127.40819489 50.10725278 -82.23291016 24.55566406 C-69.29743239 17.49233295 -55.90724682 11.57861759 -41.8203125 7.23828125 C-41.17900391 7.04008789 -40.53769531 6.84189453 -39.87695312 6.63769531 C-31.59488393 4.1345011 -23.43713335 2.60009542 -14.8671875 1.6328125 C-2.42503979 0.02171389 -2.42503979 0.02171389 0 0 Z " fill="#FDFDFD" transform="translate(241.8203125,64.76171875)"/>
<path d="M0 0 C0 1.32 0 2.64 0 4 C-1 5 -1 5 -3.5625 5.0625 C-4.7690625 5.0315625 -4.7690625 5.0315625 -6 5 C-6.33 3.35 -6.66 1.7 -7 0 C-4.3333581 -1.33332095 -2.83319697 -0.67102033 0 0 Z " fill="#EBEBEB" transform="translate(190,383)"/>
<path d="M0 0 C2.875 -0.125 2.875 -0.125 6 0 C8 2 8 2 8 5 C5.6875 5.625 5.6875 5.625 3 6 C2.01 5.34 1.02 4.68 0 4 C0 2.68 0 1.36 0 0 Z " fill="#E9E9E9" transform="translate(167,380)"/>
<path d="M0 0 C4.75 0.75 4.75 0.75 7 3 C6.625 5.125 6.625 5.125 6 7 C1.125 6.125 1.125 6.125 0 5 C-0.04063832 3.33382885 -0.042721 1.66611905 0 0 Z " fill="#EBEBEB" transform="translate(154,371)"/>
<path d="M0 0 C2.625 0.375 2.625 0.375 5 1 C5 2.32 5 3.64 5 5 C4 6 4 6 1.4375 6.0625 C0.2309375 6.0315625 0.2309375 6.0315625 -1 6 C-1.625 4.125 -1.625 4.125 -2 2 C-1.34 1.34 -0.68 0.68 0 0 Z " fill="#EEEEEE" transform="translate(200,380)"/>
<path d="M0 0 C3.875 0.875 3.875 0.875 5 2 C5.04063832 3.66617115 5.042721 5.33388095 5 7 C1.125 6.125 1.125 6.125 0 5 C-0.04063832 3.33382885 -0.042721 1.66611905 0 0 Z " fill="#F3F3F3" transform="translate(145,360)"/>
<path d="M0 0 C2.475 0.495 2.475 0.495 5 1 C5 2.65 5 4.3 5 6 C3.68 5.67 2.36 5.34 1 5 C0.67 3.35 0.34 1.7 0 0 Z " fill="#DEDEDE" transform="translate(137,350)"/>
<path d="M0 0 C2.475 0.495 2.475 0.495 5 1 C5 1.99 5 2.98 5 4 C3.35 3.67 1.7 3.34 0 3 C0 2.01 0 1.02 0 0 Z " fill="#E0E0E0" transform="translate(129,343)"/>
</svg>
